<?xml version="1.0" encoding="UTF-8"?>
<svg xmlns="http://www.w3.org/2000/svg" xmlns:xlink="http://www.w3.org/1999/xlink" viewBox="0 0 48 48" version="1.1" width="48px" height="48px">
<g id="surface1">
<path style=" fill:#FF5722;" d="M 32 15 L 32 43 L 10 43 C 7.800781 43 6 41.199219 6 39 L 6 15 Z "/>
<path style=" fill:#FFCCBC;" d="M 14 5 L 14 39 C 14 41.199219 12.199219 43 10 43 L 39 43 C 41.199219 43 43 41.199219 43 39 L 43 5 Z "/>
<path style=" fill:#FF5722;" d="M 20 10 L 38 10 L 38 14 L 20 14 Z "/>
<path style=" fill:#FF5722;" d="M 20 17 L 28 17 L 28 19 L 20 19 Z "/>
<path style=" fill:#FF5722;" d="M 30 17 L 38 17 L 38 19 L 30 19 Z "/>
<path style=" fill:#FF5722;" d="M 20 21 L 28 21 L 28 23 L 20 23 Z "/>
<path style=" fill:#FF5722;" d="M 30 21 L 38 21 L 38 23 L 30 23 Z "/>
<path style=" fill:#FF5722;" d="M 20 25 L 28 25 L 28 27 L 20 27 Z "/>
<path style=" fill:#FF5722;" d="M 30 25 L 38 25 L 38 27 L 30 27 Z "/>
<path style=" fill:#FF5722;" d="M 20 29 L 28 29 L 28 31 L 20 31 Z "/>
<path style=" fill:#FF5722;" d="M 30 29 L 38 29 L 38 31 L 30 31 Z "/>
<path style=" fill:#FF5722;" d="M 20 33 L 28 33 L 28 35 L 20 35 Z "/>
<path style=" fill:#FF5722;" d="M 30 33 L 38 33 L 38 35 L 30 35 Z "/>
<path style=" fill:#FF5722;" d="M 20 37 L 28 37 L 28 39 L 20 39 Z "/>
<path style=" fill:#FF5722;" d="M 30 37 L 38 37 L 38 39 L 30 39 Z "/>
</g>
</svg>
